<mxfile host="app.diagrams.net" agent="Mozilla/5.0 (Macintosh; Intel Mac OS X 10_15_7) AppleWebKit/537.36 (KHTML, like Gecko) Chrome/136.0.0.0 Safari/537.36" version="27.0.8">
  <diagram name="Page-1" id="YdrJ5n0NPiSp1udQo95L">
    <mxGraphModel grid="1" page="1" gridSize="10" guides="1" tooltips="1" connect="1" arrows="1" fold="1" pageScale="1" pageWidth="850" pageHeight="1100" background="none" math="0" shadow="0">
      <root>
        <mxCell id="0" />
        <mxCell id="1" parent="0" />
        <mxCell id="66Y26oFLlePQfWlo-IVY-64" value="" style="group" vertex="1" connectable="0" parent="1">
          <mxGeometry x="105" y="485" width="120" height="120" as="geometry" />
        </mxCell>
        <mxCell id="66Y26oFLlePQfWlo-IVY-60" value="" style="rounded=0;whiteSpace=wrap;html=1;" vertex="1" parent="66Y26oFLlePQfWlo-IVY-64">
          <mxGeometry width="120" height="119.99999999999999" as="geometry" />
        </mxCell>
        <mxCell id="66Y26oFLlePQfWlo-IVY-61" value="" style="shape=image;verticalLabelPosition=bottom;labelBackgroundColor=default;verticalAlign=top;aspect=fixed;imageAspect=0;image=data:image/png,iVBORw0KGgoAAAANSUhEUgAAAOEAAADhCAMAAAAJbSJIAAABTVBMVEX///8AAAApt33tsyv9///09PT//f+rq6vf398zxvH8///hGVrk5OSDg4P8/Pz39/exsbHiAFIxxvcwyOzv///hAE7/+v////scsnc1wOez5dKlpaXPz8//+ebu7u7ntchmZma8vLxycnLktC3///XpuDyc3MD3//oXFxfIyMh8fHw3NzdBQUGZmZlfX1/mmbAjIyNNTU0vLy8msXqMjIxWVlaX3+po0OTk+f7e+vCTzrVjv5pRxN8Mye00wPjR8PrT9Odhz99Is4a86/in3u9Nv+Ow8Pslwt8nu+7r/PDf//87tYez4s0YrXc+xNdquJcbvXqCzK5RuuN7wqb/7ff+4vDYbY3SHlr7zODZX4TXTHb56MTowl/rxoHQAE/aAEj25q7stBXVLmT++trtrMLu2pf247jrsjT4ryPcuy7ms1TwyXPkvVHIMWPRWIHzeGMmAAAIiElEQVR4nO2a+1cbNxaAZRDCFkY29mRkgnFsZ1hjgwnPEAIBtmmbAJst2QVMCnVDKEkfNP//j5XmKWmGLHbYs4n3focDwvOwvrka3auxEQIAAAAAAAAAAAAAAAAAAAAAAAAAAAAAAAAAAAAAAAAAAAAAAAAAAAAAAAAAAAAAAAAAAAAAAAAAAPgvgRObgwRFmBLMGCaEioZNCJI/4vWBgXPhiHgDU5tQRKUZpQPkhxrEery+/vgJaVARxY2nm5tP9xDBPSqynMfn9sY/Dfvc86iwJ1vPMtvPijtMRHD3oFQaKh1syGj2xGjKI/15nRnxTzOO7tCR/r24XSxuF/75BNvWN0OS0jcW6XHWuXPDO2RnMlMsZDKZyecI3S8NeYq7vc6rX7Lh84z0E3yL0N8Cw/sDZViQhoUBNrS+80JYGERDjjFGzvcv3HGaZIhx8Os/8WUaEsIk9Pl3LzMvMi91Q1EFYCEnoF+noeNw2qASznHDeiLYMwzlJSC3rW6+PEOKbZu7LYwYIdxBxDZjKGB2cmJkym+XWxom5nHlxTs05JxaDTeI4pdlUcwblm7ImWtJyNd3H8rphe8/3ipmMsXJ4uRksbi1tbW+I41UQ4bvbx4cPN1A8ShWpqrLs7OL8/XRbPBSgiGr1edmZ+fqNdFOj+YloyPqaZrjS4viLOO1TxjmfaJ3uo0hp9yazOi82BYljWaI/vFK/Fda2SDa0QxV6qmIufxNhqPRTnk05beifrKp2WiHNvPHqmbIGArfqtpToWoTa71gGBZFXaobbrwaGloRzR+MqaaW0lkuJxlWltR9WsHm0LC8rJ1ksem9bMQwuDCpJTHn315QTJ/7k6ZhoVB8rufDpyUpOHT4aiM6VLyNKZhK1RMMK7pAak4zTDrLVMyQoWZ4AXpblXHq7Lw0BTOZbS0fEvy6tCIYOiztqsN0JNY1T0o3ZHPx3RTDqOsKeTkOFUOG0uZhtzbEfGeyKKKmxlEsEb9X1xYEvRZtqVjatZWDx/33nK9W5/0WMg2V2yfZMJ24rSwOVGOYU7b0CEbWVqYokJY+mUJxn9obB67U0EEDuYaSTUuNoT89uNNfrtwSzdGY4Q0GkeF88kY9hii8k/O9CspkuP8vOU6LEc9efutwIoJ4eFg6FIOU4deHbjQPdrmSLbLee7q3nhxVuXZqxDRkqBr0bTmfzVWaSkRdw1rw31ytkqvUfJN5GSnFMDyq3c9630H761svJhXWdwgnFka7mysrP+xSm6LXr0Q4D/69p5VtfnSWo7zmt9QYVoK+tfx9ymFicA2D4Kz6m6eiQEWG4TRa712PY8LFZbFU9hFqyOdsBGHLEjnepmSv0WjsWdTWappseGGNm181zId9C4q70DmrnCOqW9qpKT9MgeFqOBet9S4oSjGbUlssGUTNLTsvdLnDCBNBJLwhJN2CnFC5rEC0QdSahkVpem61eUNd2vLbQaAZ0jK+fwFmlS5VkJHxF4J36TFPBFDZ9yMXoSFKVPHXYkJZuDBnWsUxngwHc6kfpWaS4ZIZI93QP0U7qWexZNRjnvAR4UHHJ51up9M9wZRZp286nR9PMSMOJWfn1789jJj5adrR1oc5owfL5bihn+2VclMz9OOTmAJMw/4KeSzusuNOd2xsYqx7IgblaffexMTYzw9EKYDfPhzWuZg50x8OxzJBO2a46DWbylGq4dInOm8a9pwJfaj9UThJxTcI2+9Ea6wz1j3m5PJ62OTifFofpyMtoxdTpqFf0KhpTDWsxi/AjYb9BRETeiz9BN0ThE9/HnNl7/2C6NuY4IcPF5fm6qnS1lN2zjBc85rqNJ9wH66iBALDMKOmKv0oCqtuxzek6ME9z3biEcdXH+KKF2eGoZz0cs2pqBN5w3A11Akn27ZiWPPbYU5luTCeYbYoByef62sypcfdwEozJO8vfjX8hn8djsWQeT1nQVdbhmGQy+bDI8KbN6tYRJmunqpmdUMl4/eREGU6f+MN04ljSiNDxKd/i8Vw+NxR8yEaVZJgPhiOTDMM59ulirafbxhMpqmqt9m7scdH5NpMqdrCMdLquWqjxELH74TiRPcXSrBiiPlZbC79/ZJy5eBsajHKAlNhd/S6NBimQj5frrWVtaJrGI7AVKtWroUZtq0bonAFlpg5PwUWjvjo0bt3b06RWENEhiL3o8s/ZlSury71B1Fuf1abFdmbYCCZ92HSIlI1jMKjMWesnsJST2TWPmpvcYi/KFJiSMRL2HEYD3FETYOVGEZ9n43qN3MuVZ4+JBvmZpO2VZDxFCOKdT9pkTDqP+xVR6moypGoUDGRMPdHfyKc1HV3EGmG7IYohUVYNmFT2Vjja+/WR84QY4/YxDC0pi/dWpRyJYpcXQAnLN4XUMwQxQZiMLkEZWY6FkUvTMaTqLC4WBzpeaDKJ9reDaYYOlfDDy+Gh6/fy2nNjSPixnFN4xFTsAbUY8iQMtsI8sFsGhbSOf0SrI0kPE0UL4WlxVKPft5XZ7w5RDFEVxfeDPqWOMS54chmXbn+S0GuDgZUVGWVwxXQWjphs7I9tRbL+EGGiGabhf4/2E8yvHYcYkZPIV1rt6oL1fF8NvzQoZL2UPtRyY9XF9ydEjejSm21vlBfrVWijy6Yv1943wUHptP9f81DnWkCw4v3seHZO/1cdPMYdvOm23OD4a0+j/k68NYWwvABwuHa4gzdQRC/FOwfJ9yFRucI4+lzL4jXl3SAvsaHj/+8J2vUU4wcdDZzIRxnLinhg/PNNpsePfr48eQIE44pv7z641zWomyADL3ET0V5xuWHp6ISxfLD/f91t+4QIh++USKLGIcjzkShTcQYpYPkCAAAAAAAAAAAAAAAAAAAAAAAAAAAAAAAAAAAAAAAAAAAAAAAAAAAAAAAAAAAAAAAAAAAAAAAAAAA8H/IX4Pu5W1qSh7pAAAAAElFTkSuQmCC;" vertex="1" parent="66Y26oFLlePQfWlo-IVY-64">
          <mxGeometry x="14.620000000000001" y="10" width="90.77" height="90.77" as="geometry" />
        </mxCell>
        <mxCell id="66Y26oFLlePQfWlo-IVY-63" value="Slack" style="text;html=1;align=center;verticalAlign=middle;whiteSpace=wrap;rounded=0;" vertex="1" parent="66Y26oFLlePQfWlo-IVY-64">
          <mxGeometry y="83.07692307692308" width="120" height="27.69230769230769" as="geometry" />
        </mxCell>
        <mxCell id="66Y26oFLlePQfWlo-IVY-66" value="" style="group" vertex="1" connectable="0" parent="1">
          <mxGeometry x="385" y="155" width="120" height="130" as="geometry" />
        </mxCell>
        <mxCell id="66Y26oFLlePQfWlo-IVY-58" value="" style="rounded=0;whiteSpace=wrap;html=1;" vertex="1" parent="66Y26oFLlePQfWlo-IVY-66">
          <mxGeometry width="120" height="120" as="geometry" />
        </mxCell>
        <mxCell id="66Y26oFLlePQfWlo-IVY-1" value="" style="dashed=0;outlineConnect=0;html=1;align=center;labelPosition=center;verticalLabelPosition=bottom;verticalAlign=top;shape=mxgraph.weblogos.github" vertex="1" parent="66Y26oFLlePQfWlo-IVY-66">
          <mxGeometry x="22.5" y="10" width="75" height="75" as="geometry" />
        </mxCell>
        <mxCell id="66Y26oFLlePQfWlo-IVY-62" value="Github" style="text;html=1;align=center;verticalAlign=middle;whiteSpace=wrap;rounded=0;" vertex="1" parent="66Y26oFLlePQfWlo-IVY-66">
          <mxGeometry y="90" width="120" height="30" as="geometry" />
        </mxCell>
        <mxCell id="66Y26oFLlePQfWlo-IVY-67" value="" style="endArrow=block;html=1;rounded=0;exitX=1;exitY=0.5;exitDx=0;exitDy=0;endFill=1;entryX=0.017;entryY=0.425;entryDx=0;entryDy=0;entryPerimeter=0;" edge="1" parent="1" source="66Y26oFLlePQfWlo-IVY-69" target="66Y26oFLlePQfWlo-IVY-58">
          <mxGeometry width="50" height="50" relative="1" as="geometry">
            <mxPoint x="295" y="192.98000000000002" as="sourcePoint" />
            <mxPoint x="345.47" y="295" as="targetPoint" />
            <Array as="points" />
          </mxGeometry>
        </mxCell>
        <mxCell id="bMD-C3JAOdJfPF1S6DZD-2" value="Closed Issue&lt;div&gt;New Image&lt;/div&gt;" style="edgeLabel;html=1;align=center;verticalAlign=middle;resizable=0;points=[];" connectable="0" vertex="1" parent="66Y26oFLlePQfWlo-IVY-67">
          <mxGeometry x="-0.0991" y="3" relative="1" as="geometry">
            <mxPoint as="offset" />
          </mxGeometry>
        </mxCell>
        <mxCell id="bMD-C3JAOdJfPF1S6DZD-8" style="edgeStyle=orthogonalEdgeStyle;rounded=0;orthogonalLoop=1;jettySize=auto;html=1;entryX=0.25;entryY=1;entryDx=0;entryDy=0;endArrow=block;endFill=1;" edge="1" parent="1" source="66Y26oFLlePQfWlo-IVY-87" target="66Y26oFLlePQfWlo-IVY-60">
          <mxGeometry relative="1" as="geometry">
            <Array as="points">
              <mxPoint x="135" y="845" />
            </Array>
          </mxGeometry>
        </mxCell>
        <mxCell id="bMD-C3JAOdJfPF1S6DZD-9" value="Chat Command" style="edgeLabel;html=1;align=center;verticalAlign=middle;resizable=0;points=[];" connectable="0" vertex="1" parent="bMD-C3JAOdJfPF1S6DZD-8">
          <mxGeometry x="0.1704" y="-1" relative="1" as="geometry">
            <mxPoint as="offset" />
          </mxGeometry>
        </mxCell>
        <mxCell id="66Y26oFLlePQfWlo-IVY-87" value="Slack Channel" style="swimlane;whiteSpace=wrap;html=1;gradientColor=none;rounded=0;" vertex="1" parent="1">
          <mxGeometry x="165" y="745" width="200" height="200" as="geometry" />
        </mxCell>
        <mxCell id="66Y26oFLlePQfWlo-IVY-90" value="" style="group" vertex="1" connectable="0" parent="66Y26oFLlePQfWlo-IVY-87">
          <mxGeometry x="10" y="150" width="180" height="40" as="geometry" />
        </mxCell>
        <mxCell id="66Y26oFLlePQfWlo-IVY-89" value="" style="rounded=1;whiteSpace=wrap;html=1;fillColor=#CF92CB;strokeColor=#9673a6;glass=0;shadow=1;" vertex="1" parent="66Y26oFLlePQfWlo-IVY-90">
          <mxGeometry width="180" height="40" as="geometry" />
        </mxCell>
        <mxCell id="66Y26oFLlePQfWlo-IVY-57" value="" style="shape=image;verticalLabelPosition=bottom;labelBackgroundColor=default;verticalAlign=top;aspect=fixed;imageAspect=0;image=https://upload.wikimedia.org/wikipedia/en/thumb/2/29/Count_von_Count_kneeling.png/250px-Count_von_Count_kneeling.png;" vertex="1" parent="66Y26oFLlePQfWlo-IVY-90">
          <mxGeometry x="10" y="5" width="26.22" height="30" as="geometry" />
        </mxCell>
        <mxCell id="66Y26oFLlePQfWlo-IVY-92" value="&lt;b&gt;&amp;nbsp;Count&lt;/b&gt;: Message" style="text;html=1;align=left;verticalAlign=middle;whiteSpace=wrap;rounded=1;fillColor=default;strokeColor=default;perimeterSpacing=0;shadow=0;glass=0;" vertex="1" parent="66Y26oFLlePQfWlo-IVY-90">
          <mxGeometry x="50" y="5" width="120" height="30" as="geometry" />
        </mxCell>
        <mxCell id="66Y26oFLlePQfWlo-IVY-93" value="" style="group" vertex="1" connectable="0" parent="1">
          <mxGeometry x="435" y="490" width="100" height="110" as="geometry" />
        </mxCell>
        <mxCell id="66Y26oFLlePQfWlo-IVY-94" value="" style="rounded=0;whiteSpace=wrap;html=1;" vertex="1" parent="66Y26oFLlePQfWlo-IVY-93">
          <mxGeometry width="100" height="110" as="geometry" />
        </mxCell>
        <mxCell id="66Y26oFLlePQfWlo-IVY-96" value="APP" style="text;html=1;align=center;verticalAlign=middle;whiteSpace=wrap;rounded=0;" vertex="1" parent="66Y26oFLlePQfWlo-IVY-93">
          <mxGeometry y="76.15384615384616" width="100" height="25.384615384615383" as="geometry" />
        </mxCell>
        <mxCell id="M7A_PeKg0Tm9MrVrnGFI-11" value="" style="shape=image;verticalLabelPosition=bottom;labelBackgroundColor=default;verticalAlign=top;aspect=fixed;imageAspect=0;image=https://upload.wikimedia.org/wikipedia/en/thumb/2/29/Count_von_Count_kneeling.png/250px-Count_von_Count_kneeling.png;" vertex="1" parent="66Y26oFLlePQfWlo-IVY-93">
          <mxGeometry x="23.78" y="16.15" width="52.44" height="60" as="geometry" />
        </mxCell>
        <mxCell id="66Y26oFLlePQfWlo-IVY-98" value="" style="endArrow=block;startArrow=block;html=1;rounded=0;entryX=0;entryY=0.5;entryDx=0;entryDy=0;exitX=1;exitY=0.5;exitDx=0;exitDy=0;startFill=1;endFill=1;" edge="1" parent="1" source="66Y26oFLlePQfWlo-IVY-60" target="66Y26oFLlePQfWlo-IVY-94">
          <mxGeometry width="50" height="50" relative="1" as="geometry">
            <mxPoint x="365" y="545" as="sourcePoint" />
            <mxPoint x="495" y="565" as="targetPoint" />
          </mxGeometry>
        </mxCell>
        <mxCell id="M7A_PeKg0Tm9MrVrnGFI-4" value="Slack API" style="edgeLabel;html=1;align=center;verticalAlign=middle;resizable=0;points=[];" connectable="0" vertex="1" parent="66Y26oFLlePQfWlo-IVY-98">
          <mxGeometry x="0.0003" y="2" relative="1" as="geometry">
            <mxPoint as="offset" />
          </mxGeometry>
        </mxCell>
        <mxCell id="66Y26oFLlePQfWlo-IVY-100" value="" style="group" vertex="1" connectable="0" parent="1">
          <mxGeometry x="285" y="295" width="132.5" height="160" as="geometry" />
        </mxCell>
        <mxCell id="66Y26oFLlePQfWlo-IVY-101" value="" style="rounded=0;whiteSpace=wrap;html=1;" vertex="1" parent="66Y26oFLlePQfWlo-IVY-100">
          <mxGeometry width="95" height="92.3076923076923" as="geometry" />
        </mxCell>
        <mxCell id="66Y26oFLlePQfWlo-IVY-103" value="GitHub Actions" style="text;html=1;align=center;verticalAlign=middle;whiteSpace=wrap;rounded=0;" vertex="1" parent="66Y26oFLlePQfWlo-IVY-100">
          <mxGeometry y="69.23076923076924" width="95" height="23.076923076923077" as="geometry" />
        </mxCell>
        <mxCell id="66Y26oFLlePQfWlo-IVY-104" value="" style="verticalLabelPosition=bottom;html=1;verticalAlign=top;align=center;strokeColor=none;fillColor=#00BEF2;shape=mxgraph.azure.github_code;pointerEvents=1;" vertex="1" parent="66Y26oFLlePQfWlo-IVY-100">
          <mxGeometry x="22.5" y="11.539999999999992" width="50" height="50" as="geometry" />
        </mxCell>
        <mxCell id="66Y26oFLlePQfWlo-IVY-105" style="edgeStyle=orthogonalEdgeStyle;rounded=0;orthogonalLoop=1;jettySize=auto;html=1;entryX=0.5;entryY=1;entryDx=0;entryDy=0;exitX=1;exitY=0.5;exitDx=0;exitDy=0;startArrow=block;startFill=1;endArrow=none;endFill=1;" edge="1" parent="1" source="66Y26oFLlePQfWlo-IVY-101" target="66Y26oFLlePQfWlo-IVY-62">
          <mxGeometry relative="1" as="geometry" />
        </mxCell>
        <mxCell id="M7A_PeKg0Tm9MrVrnGFI-12" value="Trigger Workflow" style="edgeLabel;html=1;align=center;verticalAlign=middle;resizable=0;points=[];" connectable="0" vertex="1" parent="66Y26oFLlePQfWlo-IVY-105">
          <mxGeometry x="0.1531" y="1" relative="1" as="geometry">
            <mxPoint x="1" y="-15" as="offset" />
          </mxGeometry>
        </mxCell>
        <mxCell id="66Y26oFLlePQfWlo-IVY-106" style="edgeStyle=orthogonalEdgeStyle;rounded=0;orthogonalLoop=1;jettySize=auto;html=1;exitX=0.5;exitY=1;exitDx=0;exitDy=0;entryX=0.5;entryY=0;entryDx=0;entryDy=0;startArrow=none;startFill=0;endArrow=block;endFill=1;" edge="1" parent="1" source="66Y26oFLlePQfWlo-IVY-60" target="66Y26oFLlePQfWlo-IVY-87">
          <mxGeometry relative="1" as="geometry">
            <Array as="points">
              <mxPoint x="165" y="655" />
              <mxPoint x="265" y="655" />
            </Array>
          </mxGeometry>
        </mxCell>
        <mxCell id="M7A_PeKg0Tm9MrVrnGFI-5" value="Push Notification" style="edgeLabel;html=1;align=center;verticalAlign=middle;resizable=0;points=[];" connectable="0" vertex="1" parent="66Y26oFLlePQfWlo-IVY-106">
          <mxGeometry x="-0.087" y="3" relative="1" as="geometry">
            <mxPoint x="-14" y="3" as="offset" />
          </mxGeometry>
        </mxCell>
        <mxCell id="M7A_PeKg0Tm9MrVrnGFI-1" style="edgeStyle=orthogonalEdgeStyle;rounded=0;orthogonalLoop=1;jettySize=auto;html=1;entryX=0.5;entryY=0;entryDx=0;entryDy=0;startArrow=none;startFill=0;endArrow=block;endFill=1;exitX=0.5;exitY=1;exitDx=0;exitDy=0;" edge="1" parent="1" source="66Y26oFLlePQfWlo-IVY-103" target="66Y26oFLlePQfWlo-IVY-94">
          <mxGeometry relative="1" as="geometry" />
        </mxCell>
        <mxCell id="M7A_PeKg0Tm9MrVrnGFI-2" value="Webhook POST URL" style="edgeLabel;html=1;align=center;verticalAlign=middle;resizable=0;points=[];" connectable="0" vertex="1" parent="M7A_PeKg0Tm9MrVrnGFI-1">
          <mxGeometry x="-0.0291" y="-1" relative="1" as="geometry">
            <mxPoint as="offset" />
          </mxGeometry>
        </mxCell>
        <mxCell id="bMD-C3JAOdJfPF1S6DZD-3" value="&lt;b&gt;Data stored:&lt;br&gt;&lt;/b&gt;&lt;br&gt;image name,&lt;div&gt;image version,&lt;/div&gt;&lt;div&gt;image date,&lt;/div&gt;&lt;div&gt;image #&lt;/div&gt;" style="rhombus;whiteSpace=wrap;html=1;rounded=0;" vertex="1" parent="1">
          <mxGeometry x="595" y="465" width="170" height="160" as="geometry" />
        </mxCell>
        <mxCell id="bMD-C3JAOdJfPF1S6DZD-4" value="" style="edgeStyle=orthogonalEdgeStyle;rounded=0;orthogonalLoop=1;jettySize=auto;html=1;endArrow=block;endFill=1;" edge="1" parent="1" source="66Y26oFLlePQfWlo-IVY-94" target="bMD-C3JAOdJfPF1S6DZD-3">
          <mxGeometry relative="1" as="geometry" />
        </mxCell>
        <mxCell id="bMD-C3JAOdJfPF1S6DZD-6" value="&lt;div&gt;&lt;span style=&quot;background-color: transparent; color: light-dark(rgb(0, 0, 0), rgb(255, 255, 255));&quot;&gt;&lt;b&gt;Interactions:&lt;/b&gt;&lt;/span&gt;&lt;/div&gt;&lt;div&gt;&lt;b&gt;Stop&lt;/b&gt;: stops notifications in chat&lt;/div&gt;&lt;div&gt;&lt;b&gt;Whats new&lt;/b&gt;: repeats last update&lt;/div&gt;&lt;div&gt;&lt;b&gt;All images&lt;/b&gt;: lists all images&lt;span style=&quot;color: rgba(0, 0, 0, 0); font-family: monospace; font-size: 0px; text-align: start; text-wrap-mode: nowrap; background-color: transparent;&quot;&gt;%3CmxGraphModel%3E%3Croot%3E%3CmxCell%20id%3D%220%22%2F%3E%3CmxCell%20id%3D%221%22%20parent%3D%220%22%2F%3E%3CmxCell%20id%3D%222%22%20value%3D%22%26lt%3Bb%26gt%3BData%20stored%3A%26lt%3Bbr%26gt%3B%26lt%3B%2Fb%26gt%3B%26lt%3Bbr%26gt%3Bimage%20name%2C%26lt%3Bdiv%26gt%3Bimage%20version%2C%26lt%3B%2Fdiv%26gt%3B%26lt%3Bdiv%26gt%3Bimage%20date%2C%26lt%3B%2Fdiv%26gt%3B%26lt%3Bdiv%26gt%3Bimage%20%23%26lt%3B%2Fdiv%26gt%3B%22%20style%3D%22rhombus%3BwhiteSpace%3Dwrap%3Bhtml%3D1%3Brounded%3D0%3B%22%20vertex%3D%221%22%20parent%3D%221%22%3E%3CmxGeometry%20x%3D%22590%22%20y%3D%22420%22%20width%3D%22170%22%20height%3D%22160%22%20as%3D%22geometry%22%2F%3E%3C%2FmxCell%3E%3C%2Froot%3E%3C%2FmxGraphModel%3E&lt;/span&gt;&lt;/div&gt;&lt;div&gt;&lt;b&gt;Hello&lt;/b&gt;: greeting message&lt;/div&gt;" style="ellipse;whiteSpace=wrap;html=1;" vertex="1" parent="1">
          <mxGeometry x="375" y="655" width="220" height="120" as="geometry" />
        </mxCell>
        <mxCell id="bMD-C3JAOdJfPF1S6DZD-7" value="" style="edgeStyle=orthogonalEdgeStyle;rounded=0;orthogonalLoop=1;jettySize=auto;html=1;exitX=0.5;exitY=1;exitDx=0;exitDy=0;endArrow=block;endFill=1;" edge="1" parent="1" source="66Y26oFLlePQfWlo-IVY-94" target="bMD-C3JAOdJfPF1S6DZD-6">
          <mxGeometry relative="1" as="geometry">
            <mxPoint x="475" y="625" as="sourcePoint" />
          </mxGeometry>
        </mxCell>
        <mxCell id="66Y26oFLlePQfWlo-IVY-73" value="" style="group;movable=1;resizable=1;rotatable=1;deletable=1;editable=1;locked=0;connectable=1;" vertex="1" connectable="0" parent="1">
          <mxGeometry x="135" y="155" width="90" height="100" as="geometry" />
        </mxCell>
        <mxCell id="bMD-C3JAOdJfPF1S6DZD-10" value="" style="group" connectable="0" vertex="1" parent="66Y26oFLlePQfWlo-IVY-73">
          <mxGeometry width="90" height="100" as="geometry" />
        </mxCell>
        <mxCell id="66Y26oFLlePQfWlo-IVY-69" value="" style="rounded=0;whiteSpace=wrap;html=1;" vertex="1" parent="bMD-C3JAOdJfPF1S6DZD-10">
          <mxGeometry width="90" height="100" as="geometry" />
        </mxCell>
        <mxCell id="66Y26oFLlePQfWlo-IVY-71" value="Overviews Repository" style="text;html=1;align=center;verticalAlign=middle;whiteSpace=wrap;rounded=0;" vertex="1" parent="bMD-C3JAOdJfPF1S6DZD-10">
          <mxGeometry y="60" width="90" height="30" as="geometry" />
        </mxCell>
        <mxCell id="66Y26oFLlePQfWlo-IVY-72" value="" style="verticalLabelPosition=bottom;html=1;verticalAlign=top;align=center;strokeColor=none;fillColor=#00BEF2;shape=mxgraph.azure.git_repository;" vertex="1" parent="bMD-C3JAOdJfPF1S6DZD-10">
          <mxGeometry x="20" y="10" width="50" height="50" as="geometry" />
        </mxCell>
        <mxCell id="bMD-C3JAOdJfPF1S6DZD-12" style="edgeStyle=orthogonalEdgeStyle;rounded=0;orthogonalLoop=1;jettySize=auto;html=1;entryX=0;entryY=0.5;entryDx=0;entryDy=0;startArrow=block;startFill=1;endArrow=none;" edge="1" parent="1" source="bMD-C3JAOdJfPF1S6DZD-11" target="66Y26oFLlePQfWlo-IVY-101">
          <mxGeometry relative="1" as="geometry" />
        </mxCell>
        <mxCell id="bMD-C3JAOdJfPF1S6DZD-11" value="&lt;b&gt;Data&lt;/b&gt;&lt;div&gt;&lt;b&gt;Retrieved:&lt;br&gt;&lt;/b&gt;image name,&lt;div&gt;image version,&lt;/div&gt;&lt;div&gt;image date,&lt;/div&gt;&lt;div&gt;image #&lt;/div&gt;&lt;/div&gt;" style="rhombus;whiteSpace=wrap;html=1;rounded=0;" vertex="1" parent="1">
          <mxGeometry x="85" y="271.15" width="160" height="140" as="geometry" />
        </mxCell>
      </root>
    </mxGraphModel>
  </diagram>
</mxfile>
